<?xml version="1.0" encoding="UTF-8" standalone="no"?>
<!-- Creator: http://commons.wikimedia.org/wiki/User:ParaDox 2006-07-15 12'08 -->

<svg
   xmlns:dc="http://purl.org/dc/elements/1.1/"
   xmlns:cc="http://creativecommons.org/ns#"
   xmlns:rdf="http://www.w3.org/1999/02/22-rdf-syntax-ns#"
   xmlns:svg="http://www.w3.org/2000/svg"
   xmlns="http://www.w3.org/2000/svg"
   xmlns:xlink="http://www.w3.org/1999/xlink"
   xmlns:sodipodi="http://sodipodi.sourceforge.net/DTD/sodipodi-0.dtd"
   xmlns:inkscape="http://www.inkscape.org/namespaces/inkscape"
   version="1.0"
   width="480"
   height="560"
   viewBox="0 0 480 560"
   id="svg1365"
   inkscape:version="0.91 r13725"
   sodipodi:docname="logo.svg">
  <metadata
     id="metadata3394">
    <rdf:RDF>
      <cc:Work
         rdf:about="">
        <dc:format>image/svg+xml</dc:format>
        <dc:type
           rdf:resource="http://purl.org/dc/dcmitype/StillImage" />
      </cc:Work>
    </rdf:RDF>
  </metadata>
  <sodipodi:namedview
     pagecolor="#ffffff"
     bordercolor="#666666"
     borderopacity="1"
     objecttolerance="10"
     gridtolerance="10"
     guidetolerance="10"
     inkscape:pageopacity="0"
     inkscape:pageshadow="2"
     inkscape:window-width="1280"
     inkscape:window-height="747"
     id="namedview3392"
     showgrid="false"
     inkscape:zoom="0.93392857"
     inkscape:cx="171.15246"
     inkscape:cy="292.32374"
     inkscape:window-x="0"
     inkscape:window-y="0"
     inkscape:window-maximized="1"
     inkscape:current-layer="svg1365" />
  <defs
     id="defs4">
    <linearGradient
       x1="67.534569"
       y1="422.77271"
       x2="412.71317"
       y2="79.813492"
       id="id0"
       gradientUnits="userSpaceOnUse">
      <stop
         style="stop-color:#f6b;stop-opacity:1"
         offset="0"
         id="stop9" />
      <stop
         style="stop-color:#0c30ad;stop-opacity:1"
         offset="1"
         id="stop11" />
    </linearGradient>
    <linearGradient
       x1="67.534569"
       y1="422.77271"
       x2="412.71317"
       y2="79.813492"
       id="linearGradient1886"
       xlink:href="#id0"
       gradientUnits="userSpaceOnUse"
       gradientTransform="matrix(1.417322,0,0,1.417322,-100.1568,-116.8503)" />
  </defs>
  <path
     d="M 0,0 L 0,106.65625 L 42.65625,106.65625 L 42.65625,74.65625 L 74.65625,106.65625 L 42.65625,138.65625 L 74.6875,170.625 L 106.65625,138.65625 L 117.34375,149.1875 C 96.147984,175.92216 83.517572,209.50013 83.5,246.0625 C 83.462015,324.18614 140.88603,389.25474 216.0625,400.78125 L 216,456 L 154.65625,456 L 154.65625,504 L 216,504 L 216,560 L 264,560 L 264,504 L 325.34375,504 L 325.34375,456 L 264,456 L 264,400.71875 L 264,400.6875 C 338.88393,389.08955 396.53125,324.10308 396.53125,246.0625 C 396.53125,209.59254 383.94258,175.94924 362.84375,149.25 L 437.34375,74.65625 L 437.34375,144 L 480,144 L 480,0 L 336,0 L 336,42.65625 L 405.34375,42.65625 L 329.9375,118.09375 C 304.47162,100.12749 273.43661,89.53125 240,89.53125 C 206.57359,89.53125 175.54127,100.12154 150.125,118.09375 L 138.65625,106.65625 L 170.65625,74.65625 L 138.65625,42.65625 L 106.65625,74.65625 L 74.65625,42.65625 L 106.65625,42.65625 L 106.65625,0 L 0,0 z M 240.00001,133.4375 C 301.68326,133.4375 352,183.75396 352,245.4375 C 352,307.12106 301.68326,357.4375 240.00001,357.4375 C 178.31674,357.43751 128,307.12106 128,245.4375 C 128,183.75396 178.31674,133.4375 240.00001,133.4375 z "
     style="fill:url(#linearGradient1886)"
     id="path1878" />
  <circle
     style="fill:#ff00ff"
     id="path3396"
     cx="176.67303"
     cy="210.9369"
     r="18.202677" />
  <circle
     style="fill:#ff00ff"
     id="path3396-3"
     cx="300.87955"
     cy="212.00764"
     r="18.202677" />
  <path
     style="fill:#ff00ff"
     id="path3425"
     d="m 197.71181,259.06443 c 0.33661,1.49219 0.57127,3.00701 0.90938,4.49779 0.35051,1.69411 1.10722,3.24588 1.57663,4.90464 0.20805,1.77241 0.84452,3.35555 1.60542,4.94993 0.55323,1.01787 1.11577,2.08928 1.84251,2.9931 0.55997,0.79524 1.28896,1.52763 2.01589,2.17172 0.68032,0.60864 1.47531,1.05949 2.139,1.66755 0.84377,0.836 1.93754,1.33215 3.02467,1.7819 1.1795,1.04193 2.67829,1.56616 3.9703,2.41122 1.36584,0.65906 2.61997,1.44663 4.10651,1.81743 1.25544,0.29763 2.54994,0.34086 3.83448,0.33656 1.01987,0.0774 1.75482,-0.56197 2.72273,-0.87009 0.18993,-0.026 0.39422,-8.9e-4 0.56977,-0.0779 0.16359,-0.0717 0.25452,-0.25503 0.40587,-0.3499 0.69795,-0.43749 1.47,-0.45333 2.08339,-0.99839 -34.05927,19.7015 0.10685,-0.10813 1.15492,-0.78734 4.27793,-2.77238 -8.80659,5.13725 -13.21925,7.68973 -0.20778,0.12019 0.38594,-0.28657 0.56528,-0.44611 0.69623,-0.64372 1.19825,-1.32822 1.57935,-2.19072 0.78743,-1.18245 1.6232,-2.32399 2.38959,-3.52381 0.49576,-0.87836 0.97832,-1.73528 1.49394,-2.60536 0.36884,-0.72178 0.68352,-1.41947 1.09067,-2.1413 0.39433,-0.82506 0.8134,-1.63287 1.14408,-2.50882 0.19486,-0.99765 0.75252,-1.81629 1.16075,-2.72377 0.39727,-0.90245 0.43986,-1.86168 0.80629,-2.78688 0.35663,-0.91978 1.07903,-1.5873 1.48301,-2.49832 1.78602,-7.21502 -8.21468,2.49257 14.44399,-9.39738 0.98664,1.07706 0.26213,2.25055 0.46067,3.45378 0.15463,0.97864 0.5385,1.86905 0.97715,2.74856 0.61222,1.70777 1.58257,3.20792 2.53626,4.73859 0.78897,1.50116 1.60387,2.98415 2.42264,4.47314 0.71255,0.8925 1.31009,1.86818 2.0369,2.75016 0.62305,0.72558 1.28862,1.41336 1.9657,2.08836 0.12217,0.0675 0.26816,0.10335 0.36653,0.20236 1.3362,1.34487 -0.22982,0.09 0.99025,1.20933 0.52452,0.48121 1.13351,0.79792 1.65689,1.29112 0.53,0.62886 1.42665,0.61694 2.07926,1.00007 0.31999,0.18785 0.57894,0.46692 0.89274,0.66494 1.03402,0.69662 2.1484,1.17009 3.36851,1.41281 1.39268,0.7379 2.87536,1.01214 4.42471,1.15758 1.54538,0.0858 2.97875,-0.59188 4.52074,-0.77478 0.87931,-0.29514 1.90915,0.022 2.78629,-0.20617 0.37961,-0.0988 0.69764,-0.36239 1.06385,-0.50289 1.01763,-0.41839 2.11113,-0.57505 3.20405,-0.57673 7.87374,-3.99892 -17.38942,10.44997 -10.74916,6.17171 0.87889,-0.41072 1.50483,-1.06702 2.07567,-1.86229 0.70894,-0.97941 1.47439,-1.8946 2.105,-2.92729 0.89207,-1.14073 1.20021,-2.54062 1.70416,-3.85969 0.33951,-1.04699 1.01896,-1.86362 1.61486,-2.76152 0.17922,-0.93129 0.80577,-1.65168 1.14855,-2.51598 0.28825,-0.87338 0.37668,-1.76787 0.71876,-2.62668 0.47426,-0.7477 0.60784,-1.59271 0.65953,-2.45802 0.41457,-0.66369 0.72701,-1.33586 0.97577,-2.07482 -0.0344,-0.94507 0.54501,-1.63998 0.8599,-2.47928 0.15523,-0.4224 0.23731,-0.84621 0.3094,-1.28937 0,0 14.47594,-6.63255 14.47594,-6.63255 l 0,0 c -0.38655,0.33144 -0.25138,0.65069 -0.39349,1.1194 -0.13572,0.54551 -0.21241,1.33004 -0.62519,1.76181 -0.0676,0.0707 -0.22422,0.0226 -0.27312,0.10734 -0.0717,0.12427 -0.0243,0.28593 -0.0364,0.42889 -0.0543,0.87804 -0.26508,1.77017 -0.74422,2.51315 -0.66266,0.11678 -0.34723,1.84951 -0.69891,2.43429 -0.49481,0.8076 -0.79176,1.44549 -0.83169,2.41235 -0.16172,0.63042 -0.27594,1.37484 -0.70269,1.89891 -0.0772,0.0948 -0.24113,0.10161 -0.30278,0.20724 -0.0866,0.14839 -0.0745,0.33544 -0.11178,0.50316 -0.27916,1.27872 -1.07215,1.7907 -1.60157,2.88644 -0.75931,1.28922 -0.88716,2.74849 -1.6395,4.05627 -0.69321,1.00322 -1.16753,2.11799 -2.03797,2.99893 -0.62145,0.82519 -1.02862,1.80907 -1.83132,2.40065 -5.40166,3.37467 -10.50304,8.14864 -16.83563,9.04046 -1.01761,0.18929 -1.99802,0.50808 -2.97786,0.83626 -1.28496,0.3284 -2.6535,0.17649 -3.95084,0.50018 -1.59079,0.33786 -3.12346,0.75047 -4.76458,0.38524 -1.59796,-0.25401 -3.0873,-0.76198 -4.60458,-1.30533 -1.29574,-0.44385 -2.54138,-1.03518 -3.68689,-1.78911 -0.99659,-0.66708 -2.19459,-1.02357 -3.0561,-1.90106 -1.06457,-0.89499 -2.09553,-1.8046 -3.10624,-2.75726 -0.70626,-0.72395 -1.43503,-1.43334 -2.05465,-2.23498 -0.75732,-0.98328 -1.40159,-2.03653 -2.11347,-3.05374 -0.74265,-1.49379 -1.63425,-2.90575 -2.35565,-4.40812 -0.90495,-1.57753 -1.95865,-3.05739 -2.60611,-4.76904 -0.5813,-0.98684 -1.08906,-1.96101 -1.26629,-3.10559 -0.083,-0.32776 -0.60288,-3.1103 0.32117,-2.0594 4.55996,-2.56789 9.18544,-5.02275 13.67988,-7.70367 0.12144,-0.0724 -0.19893,-0.2581 -0.34027,-0.25336 -0.0369,10e-4 -0.14891,1.50609 -0.2015,1.58196 -0.13495,0.98116 -0.41395,2.23481 -1.37266,2.70553 -0.1488,0.32238 -0.55806,0.88503 -0.65463,1.15061 -0.18072,0.49703 0.0688,1.1188 -0.12313,1.62208 -0.17402,0.42678 -0.31355,0.93996 -0.54424,1.33579 -0.0727,0.12468 -0.5367,0.58589 -0.59092,0.71731 -0.0782,0.18948 -0.0708,0.40378 -0.10621,0.60568 -0.16298,0.4738 -0.26548,1.29727 -0.52328,1.70444 -0.0567,0.0895 -0.23761,0.0207 -0.29946,0.10676 -0.1815,0.25252 0.0197,0.67125 -0.1632,0.91856 -0.44954,0.79886 -0.99246,1.27092 -1.08776,2.17371 -0.54813,0.93557 -1.21556,1.67156 -1.53191,2.71462 -0.79066,1.15055 -1.42815,2.39929 -2.38168,3.41924 -0.60165,0.75941 -0.62147,1.82875 -1.41329,2.46717 -3.58057,4.90836 -3.68025,0.98477 -14.43095,8.95607 -4.1003,3.04024 8.78907,-5.194 13.21004,-7.74557 0.1315,-0.0759 -0.22088,0.20837 -0.33132,0.31256 -4.67022,2.72477 -9.34044,5.44954 -14.01065,8.17431 -1.11493,0.33566 -2.10106,0.99514 -3.25144,1.22088 -1.03757,0.37074 -1.96189,0.59939 -3.08004,0.40547 -1.34615,-0.12204 -2.69474,-0.28508 -3.97773,-0.73617 -1.5162,-0.55367 -2.92594,-1.35026 -4.3432,-2.1164 -1.32657,-0.71697 -2.59246,-1.52754 -3.91511,-2.24651 -1.14653,-0.59349 -2.31211,-1.19582 -3.25015,-2.09995 -0.79121,-0.53373 -1.54973,-1.11848 -2.23528,-1.78396 -0.73629,-0.77152 -1.54634,-1.49088 -2.13175,-2.38912 -0.73986,-1.03914 -1.38739,-2.17948 -1.91541,-3.33851 -0.74154,-1.69008 -1.6129,-3.29376 -1.72305,-5.17772 -0.43753,-1.66584 -1.22331,-3.1996 -1.61286,-4.88033 -0.463,-1.46742 -0.46997,-3.03764 -0.99118,-4.49761 0,0 13.98199,-7.56117 13.98199,-7.56117 z"
     inkscape:connector-curvature="0" />
  <path
     style="fill:#ff00ff"
     id="path3427"
     d="m 147.24319,257.36901 c -3.06768,-0.70851 -6.25659,-1.0948 -9.35787,-0.45645 -0.28641,-0.41845 -3.58734,1.39179 -3.24657,1.19927 27.89615,-15.76086 15.09333,-10.28952 12.03249,-6.486 -1.46898,1.5638 -1.36552,3.96844 -1.23835,5.96882 0.20473,1.83721 0.29733,3.76402 1.15961,5.43411 0.94249,1.45484 2.24457,2.59524 3.36669,3.89561 0.98081,1.12346 2.09948,2.02356 3.3608,2.81393 1.08667,0.46101 1.98921,1.0536 2.94694,1.73879 1.09159,0.72999 2.49145,1.25874 3.78825,0.90809 1.36116,-0.27656 2.71883,-0.63424 4.10597,-0.74999 0.2085,-0.006 0.42458,0.0381 0.6255,-0.0179 0.34513,-0.0963 1.2229,-0.74701 0.91171,-0.5694 -32.8895,16.44683 -15.69928,10.61316 -12.54618,6.96013 0.694,-0.77682 1.08435,-1.68306 1.3673,-2.6711 0.52664,-1.26555 0.8856,-2.58365 1.04242,-3.94409 0.20697,-1.40618 -0.29494,-2.76825 -0.56395,-4.13313 -0.37654,-0.967 -0.80021,-1.93714 -1.35972,-2.81622 -0.82358,-0.59146 -1.26843,-1.52118 -1.88238,-2.28431 -0.67566,-0.58855 -0.87469,-1.48352 -1.28142,-2.23279 -0.40952,-0.54349 -0.74428,-1.04783 -1.29547,-1.46189 -0.0673,-0.0451 -0.1887,-0.21507 -0.20181,-0.13518 -0.0274,0.16733 0.13016,0.31892 0.14393,0.48792 0.0264,0.32344 -0.29707,0.46742 -0.51134,0.62128 4.45746,-2.63221 8.91491,-5.26443 13.37237,-7.89664 -0.62116,0.66156 -1.16696,1.24601 -1.68166,2.01587 -0.73979,1.06701 -1.10487,2.34319 -1.62695,3.53375 -1.19945,2.18043 -2.27273,4.42445 -3.42078,6.63137 -0.46497,0.83414 -0.86395,1.68914 -0.70714,2.62108 0.49368,0.18268 0.35996,-0.11709 0.59603,-0.41586 0.0666,-0.0843 0.68689,-0.36755 0.76302,-0.40401 0.70942,-0.28658 2.02741,-0.0977 2.41353,-0.74193 -4.4734,2.62567 -8.97554,5.20299 -13.4202,7.87702 -0.0707,0.0425 0.16848,0.0887 0.242,0.0513 0.0654,-0.0332 0.0578,-0.13659 0.0688,-0.20915 0.0541,-0.35848 -0.0441,-0.81471 -0.0692,-1.16741 -0.11149,-0.97382 -0.1355,-1.95255 -0.16749,-2.93108 0.1,-0.82769 -0.2005,-1.38957 -0.52119,-2.12273 -0.20687,-0.77706 -0.67027,-1.39986 -1.03212,-2.1084 -0.22591,-0.75674 -0.70173,-1.38394 -1.05486,-2.08561 0,0 13.84794,-7.85612 13.84794,-7.85612 l 0,0 c 0.32196,0.7091 0.84002,1.31871 1.05762,2.06779 0.34861,0.74414 0.91554,1.37047 1.07799,2.19133 0.35142,0.8771 0.93892,1.6744 0.78945,2.66503 0.002,0.94613 0.0338,1.89266 0.10608,2.83616 0.78679,7.27982 2.88196,2.44706 -13.39542,10.71826 -0.84815,-0.029 -1.68439,0.32886 -2.46723,0.63992 -1.11753,0.33846 -1.94613,-0.0671 -2.63143,-1.00824 -0.7303,-1.30462 -0.58303,-2.88661 0.181,-4.1624 1.12595,-2.17991 2.25528,-4.35057 3.37855,-6.53363 0.60312,-1.23427 1.06355,-2.41141 1.41268,-3.74558 0.53354,-0.73021 0.77246,-1.67326 1.57478,-2.09816 4.58774,-2.79205 9.16695,-5.59815 13.76321,-8.37614 0.2645,-0.15987 0.70236,-0.24682 0.97836,-0.0669 0.26964,0.17581 0.4263,0.48895 0.68828,0.67734 0.59924,0.58588 1.10028,1.23869 1.55238,1.94312 0.39203,0.68763 0.55273,1.48779 1.1593,2.05543 0.60923,0.83783 1.17181,1.70096 1.93474,2.42179 0.64702,1.06446 1.16299,2.18998 1.60353,3.35674 0.26063,1.50975 0.82871,2.9959 0.75475,4.53438 -0.11894,1.46697 -0.27154,2.90541 -0.81877,4.2901 -0.47522,0.97477 -0.44557,2.19555 -1.17246,3.07476 -3.39907,5.37681 -10.00321,8.85772 -16.3072,9.43087 -1.37208,0.25396 -2.75248,0.52131 -4.14841,0.5822 -1.58094,-0.23059 -3.07511,-0.74661 -4.37352,-1.70582 -0.96012,-0.61487 -1.98397,-1.09397 -2.91834,-1.75314 -1.31145,-0.93504 -2.54127,-1.92491 -3.56137,-3.18414 -1.20736,-1.39139 -2.56926,-2.65786 -3.5723,-4.21883 -0.961,-1.90593 -1.14963,-3.9418 -1.30534,-6.05074 -0.23599,-2.35169 -0.32295,-4.7695 0.49194,-7.03253 0.14377,-0.1442 0.30898,-0.2698 0.43129,-0.43259 0.15398,-0.20494 0.1736,-0.52656 0.39118,-0.66207 7.5704,-4.71489 10.47632,-8.08778 17.49666,-9.09239 3.26898,-0.20612 6.48186,0.34873 9.74309,0.43102 0,0 -12.86374,9.34605 -12.86374,9.34605 z"
     inkscape:connector-curvature="0" />
  <path
     style="fill:#ff00ff"
     id="path3429"
     d="m 325.84315,261.81691 c -1.10385,-1.05509 -2.16996,-2.18374 -3.46541,-3.01213 -0.93988,-0.4232 -1.95674,-0.40846 -2.96504,-0.40878 -0.63266,0.24609 -1.77716,-0.30072 -2.36091,0.0412 -0.11693,0.0685 -0.13032,0.23767 -0.19549,0.3565 -7.73785,3.84051 16.9233,-9.33947 11.48454,-6.73528 -5.52255,4.17939 22.78414,-6.83817 -14.51704,8.51549 -4.75533,1.95736 8.87783,-5.19295 13.34623,-7.73813 0.25671,-0.14622 -0.43206,0.40407 -0.66397,0.5871 -0.73842,0.29068 -1.10204,0.83711 -1.61379,1.43825 -0.4459,0.67304 -0.86731,1.32464 -1.31185,2.00595 -0.48566,1.02497 -0.89079,2.13525 -1.20235,3.23578 -0.36502,1.26951 -0.44257,2.5875 -0.50078,3.89894 -0.10692,1.39842 0.405,2.73916 0.67884,4.09409 0.31064,1.21004 0.99705,2.24066 1.55991,3.33368 0.62237,0.78878 1.30858,1.5005 1.88666,2.32226 0.56987,0.73128 1.46625,1.33358 2.31521,1.75023 0.73568,0.41711 1.53266,0.37727 2.34874,0.38549 1.23768,-0.0341 1.3226,0.24701 2.26857,-0.60582 5.16478,-1.73994 9.5688,-5.30033 -12.44805,7.30019 -0.0357,0.0204 0.42108,-0.12725 0.73829,-0.73167 1.16284,-1.18346 35.39638,-20.20686 0.75741,-0.37763 -0.84732,0.48505 0.6396,-0.63606 0.85694,-0.72768 0.31961,-0.70833 1.01469,-1.03681 1.47522,-1.61987 0.19606,-0.68616 0.95317,-0.97886 1.28513,-1.60687 0.35433,-1.33666 0.94471,-2.60833 1.5051,-3.88074 0.41473,-1.03104 0.76213,-2.081 0.88562,-3.18793 0.0947,-0.9121 0.095,-1.83128 0.0572,-2.74668 0.0942,-0.77608 -0.0278,-1.35805 -0.32551,-2.0542 -0.36629,-0.84371 -0.59486,-1.71689 -1.0153,-2.53863 -0.29065,-0.46732 -0.41103,-2.00179 -0.73428,-0.63582 -0.0782,0.0303 -0.30774,0.13198 -0.23459,0.091 4.5025,-2.51098 9.005,-5.02196 13.50749,-7.53293 -0.062,0.0249 -0.57709,0.22489 -0.62001,0.27115 -0.24123,0.26 -0.37309,0.60617 -0.60028,0.87853 -0.60656,0.85912 -0.89686,1.8422 -1.4034,2.75478 -0.40637,0.81428 -0.84366,1.58844 -1.26414,2.40128 -0.46514,0.80022 -1.04015,1.54233 -1.56056,2.33635 -3.30289,4.73626 -9.44495,10.93324 -15.21666,8.87353 -0.77749,-0.33606 -1.07854,-1.44254 -1.19381,-2.21734 -0.10717,-0.9161 0.0249,-1.84612 -0.0795,-2.7596 -0.33736,-0.71005 -0.66473,-1.41908 -0.85338,-2.18657 -0.1061,-0.24921 -0.0348,-0.11929 -0.23162,-0.37956 0,0 13.74577,-8.07976 13.74577,-8.07976 l 0,0 c 0.37185,0.57241 0.18609,0.26024 0.54695,0.9426 0.0941,0.76876 0.47682,1.43486 0.77576,2.13801 0.30623,0.96251 0.21206,1.93397 0.24173,2.93747 0.0367,1.00133 -0.0827,0.36186 0.0463,0.29711 0.1197,-0.0574 0.40802,-0.33626 0.29352,-0.26912 -25.00516,14.66181 -14.86629,11.89564 -12.72553,6.92296 0.21877,-0.20148 0.51511,-0.33907 0.66296,-0.59712 0.29406,-0.51322 0.28194,-1.30883 1.02777,-1.40974 0.44264,-0.86455 0.92005,-1.58266 1.26582,-2.4497 0.16523,-0.30354 0.27847,-0.63994 0.48803,-0.91476 0.0858,-0.11251 0.25296,-0.15221 0.32341,-0.27492 0.28661,-0.49922 0.1374,-1.21826 0.57116,-1.66338 0.0854,-0.17797 0.17087,-0.35595 0.2563,-0.53392 0.10789,-0.0945 0.25861,-0.15566 0.32366,-0.28347 0.088,-0.1729 0.0472,-0.38818 0.11138,-0.57128 1.82681,-5.21508 9.06875,-7.98554 14.62024,-8.28854 0.94449,0.50912 1.4818,1.31525 1.74106,2.34375 0.39952,0.85305 0.78246,1.69245 1.05814,2.59143 0.38765,0.86193 0.79865,1.62863 0.66471,2.60689 -0.0259,0.96932 -0.0142,1.93839 -0.0332,2.90778 -0.0918,1.25969 -0.24629,2.48774 -0.7884,3.64935 -0.45232,1.25273 -1.19873,2.47489 -1.4098,3.72085 -0.12505,0.65048 -0.32074,1.9113 -1.12008,1.93726 -0.15503,0.32387 -0.3146,0.89459 -0.54227,1.15599 -0.37354,0.42889 -0.28983,-0.10472 -0.68446,0.28897 -0.10348,0.10323 -0.11948,0.2668 -0.17922,0.4002 -0.22902,0.60971 -0.29286,0.49639 -0.79124,0.79404 -4.60691,2.75153 -10.84596,3.80975 -13.7997,8.28969 -2.78882,4.22981 18.79435,-9.2443 13.12558,-7.66406 -0.66973,0.0713 -0.26374,0.46423 -0.7564,0.75916 -5.92426,3.54661 -9.61288,6.04557 -14.81162,8.51089 -0.89928,0.15329 -1.84714,-0.0123 -2.75657,-0.0521 -0.99304,-0.13758 -1.90756,-0.4346 -2.73674,-1.01735 -0.95467,-0.66033 -2.02866,-1.25786 -2.64686,-2.27131 -0.67724,-0.84454 -1.39306,-1.66025 -1.98842,-2.56734 -0.62969,-1.23193 -1.37278,-2.39654 -1.76052,-3.74267 -0.25785,-1.47153 -0.81639,-2.89923 -0.84543,-4.39243 0.0188,-1.41649 0.0691,-2.83527 0.3467,-4.22875 0.29744,-1.20626 0.73769,-2.31616 0.97272,-3.51741 0.12446,-0.29673 0.18326,-0.62653 0.35894,-0.89612 0.13673,-0.20981 0.47159,-0.24629 0.58751,-0.46829 0.0797,-0.15269 0.0554,-0.34002 0.0832,-0.51003 0.0652,-0.10938 0.13036,-0.21876 0.19554,-0.32815 0.15712,-0.26543 0.22441,-0.5972 0.44803,-0.80967 0.0825,-0.0784 0.24926,-0.0128 0.3281,-0.0949 0.3045,-0.31725 0.0302,-0.96972 0.61839,-1.06364 9.14124,-5.26163 28.46399,-16.9398 1.26087,-0.91835 -0.20098,0.11837 0.98979,-0.13708 0.61323,-0.33703 3.948,-4.58992 10.30114,-6.6805 15.86283,-9.01354 0.96223,0.17177 1.94521,0.0514 2.91797,0.15281 1.23511,0.13776 2.41227,0.42703 3.43249,1.17983 1.26344,1.00874 2.37849,2.18564 3.62944,3.21101 0,0 -13.54905,8.30287 -13.54905,8.30287 z"
     inkscape:connector-curvature="0" />
  <path
     style="fill:#ff00ff"
     id="path3431"
     d="m 288.3194,173.59819 c 1.58701,-0.84182 3.31601,-1.22953 5.08638,-1.42114 0.76307,-0.24699 1.64834,0.0369 2.40974,-0.16918 0.46314,-0.12539 1.04173,-0.5329 1.49598,-0.73564 1.18854,-0.25631 2.41377,-0.32263 3.62763,-0.33807 1.30969,-0.13309 2.43891,0.55458 3.7147,0.794 1.62291,0.25044 3.26741,0.28784 4.90634,0.29839 1.22834,0.60902 2.66157,0.61422 3.85738,1.24162 1.26555,0.37053 2.29126,1.18282 3.49136,1.70421 1.14062,0.60543 2.24086,1.28122 3.43651,1.80631 1.2571,0.59063 1.99617,1.90163 3.27452,2.40843 0.75802,0.84557 1.95526,0.98493 2.70744,1.7753 0,0 -13.53051,8.4257 -13.53051,8.4257 l 0,0 c -0.90187,-0.37635 -1.62787,-1.05071 -2.46537,-1.53652 -1.09918,-0.73601 -1.94644,-1.78678 -3.17389,-2.34573 -1.1794,-0.58398 -2.34338,-1.19775 -3.51779,-1.79005 -1.11035,-0.60773 -2.17995,-1.25633 -3.40774,-1.61675 -1.16339,-0.2749 -2.30452,-0.71946 -3.4972,-0.80978 -1.70147,-0.0862 -3.41152,-0.16137 -5.07978,-0.53689 -1.1889,-0.29201 -2.2682,-0.64974 -3.50737,-0.42055 -1.14524,0.10897 -2.29864,0.24057 -3.35058,0.74378 -1.30773,0.41004 -2.65433,0.32862 -4.00087,0.57527 -1.71749,0.37543 -3.34416,1.00325 -4.87881,1.86766 0,0 12.40193,-9.92037 12.40193,-9.92037 z"
     inkscape:connector-curvature="0" />
  <path
     style="fill:#ff00ff"
     id="path3433"
     d="m 160.90066,181.09341 c -22.98168,13.77477 -14.06512,8.78623 -9.50707,4.69656 5.33002,-4.00558 10.53121,-6.62298 16.77279,-10.28182 -4.35825,2.52299 -8.70312,5.06923 -13.07474,7.56897 -0.18589,0.1063 0.32776,-0.27939 0.51334,-0.38622 4.72524,-2.71995 9.43089,-5.47618 14.21478,-8.0916 4.37969,-2.39445 -8.66682,4.95444 -13.00201,7.42856 -0.17181,0.0981 0.34091,-0.20081 0.51186,-0.30037 4.69378,-2.73364 9.38821,-5.46615 14.08231,-8.19923 0.35295,-0.39115 1.04326,-0.24904 1.441,-0.44196 0.13806,-0.067 0.17911,-0.25642 0.30379,-0.34586 0.27628,-0.19816 0.61971,-0.27998 0.92788,-0.4236 0.50078,-0.44861 1.27956,-0.10622 1.82579,-0.31456 0.30705,-0.11711 0.53137,-0.39817 0.83466,-0.5247 0.80525,-0.64616 2.00051,-0.20255 2.7096,-0.85421 0.73234,-0.659 1.81994,-0.71594 2.76687,-0.74389 1.0756,0.11313 1.7513,-0.56785 2.72679,-0.91113 1.17485,-0.2433 2.35505,-0.16138 3.54619,-0.15501 1.49349,-0.0255 2.98718,-0.004 4.48071,-0.0143 1.31614,-0.12398 2.48452,0.35823 3.54901,1.10689 1.06373,0.54678 2.12901,0.87135 3.08326,1.59009 0.49362,0.30815 1.02473,0.3865 1.58517,0.47379 0,0 -13.109,9.02979 -13.109,9.02979 l 0,0 c -0.67382,-0.23326 -1.31463,-0.52771 -1.89401,-0.95046 -0.9359,-0.58239 -2.04995,-0.874 -2.9779,-1.48842 -1.01755,-0.41461 -1.94945,-0.55552 -3.05839,-0.44965 -1.4731,-0.0156 -2.94675,-0.005 -4.41965,0.021 -1.1313,0.0607 -2.28116,0.14833 -3.3146,0.65552 -0.96934,0.39964 -1.87094,0.56338 -2.92554,0.62001 -0.90603,0.24787 -1.69025,0.69945 -2.55096,1.04012 -0.97108,0.0649 -1.79328,0.48582 -2.67977,0.86018 -0.86023,0.34432 -1.837,0.32062 -2.60741,0.93515 -0.86827,0.44773 -1.76129,0.71259 -2.57954,1.26809 33.54275,-19.55499 -0.31216,0.25097 -1.66008,0.95094 -4.43655,2.30389 8.6563,-5.00325 12.97722,-7.51731 0.17616,-0.1025 -0.36157,0.18819 -0.54235,0.28229 -4.67549,2.75534 -9.35097,5.51069 -14.02646,8.26603 4.34154,-2.55019 8.68307,-5.10038 13.02461,-7.65057 -0.0886,0.0645 -0.96585,0.69977 -1.02113,0.75396 -0.17473,0.17124 -0.27758,0.4084 -0.45844,0.57315 -0.36567,0.33308 -0.88009,0.47382 -1.23972,0.81544 -5.63917,2.98875 -9.87523,15.03327 -17.63079,11.0287 0,0 12.40193,-9.92037 12.40193,-9.92037 z"
     inkscape:connector-curvature="0" />
</svg>
